<svg width="247" height="16" viewBox="0 0 247 16" fill="none" xmlns="http://www.w3.org/2000/svg">
<path d="M6.38634 0H9.4234L15.8097 15.0055H12.3658L11.0034 11.661H4.69278L3.33982 15.0055H0L6.38634 0ZM9.83497 8.76584L7.85283 3.93588L5.87543 8.76584H9.83497Z" fill="#5FACFA"/>
<path d="M18.0946 1.66893e-06H21.373V11.9448H28.819V14.9251H18.0946V1.66893e-06Z" fill="#5FACFA"/>
<path d="M31.2694 1.66893e-06H38.1903C39.8933 1.66893e-06 41.2321 0.473064 42.0836 1.31985C42.4189 1.64968 42.6827 2.04504 42.8585 2.48128C43.0343 2.91753 43.1183 3.3853 43.1054 3.85546V3.90277C43.1233 4.56997 42.9479 5.2281 42.6004 5.79797C42.253 6.36783 41.7482 6.82514 41.147 7.11486C42.8736 7.77715 43.938 8.77531 43.938 10.7764V10.8189C43.938 13.5438 41.7241 14.9062 38.3606 14.9062H31.2647L31.2694 1.66893e-06ZM37.4855 6.02681C38.933 6.02681 39.8508 5.55375 39.8508 4.45152V4.40894C39.8508 3.4297 39.0844 2.87622 37.6983 2.87622H34.4626V6.02681H37.4855ZM38.3606 12.0252C39.8082 12.0252 40.6786 11.5143 40.6786 10.4074V10.3695C40.6786 9.36663 39.9359 8.75165 38.2518 8.75165H34.4673V12.0252H38.3606Z" fill="#5FACFA"/>
<path d="M46.6392 1.66893e-06H57.8792V2.9188H49.8986V5.94166H56.9236V8.85573H49.8986V11.9827H57.988V14.9015H46.6345L46.6392 1.66893e-06Z" fill="#5FACFA"/>
<path d="M60.902 1.66893e-06H67.7141C69.6064 1.66893e-06 71.0776 0.534562 72.0568 1.5138C72.487 1.96703 72.8218 2.50208 73.0412 3.08718C73.2606 3.67228 73.3602 4.29551 73.3341 4.91985V4.96242C73.3824 5.9758 73.0959 6.9769 72.5188 7.8113C71.9417 8.64571 71.1062 9.26706 70.1409 9.57951L73.7835 14.9015H69.9754L66.7585 10.133H64.1804V14.9015H60.902V1.66893e-06ZM67.5249 7.23785C69.1239 7.23785 70.0369 6.38634 70.0369 5.13273V5.09015C70.0369 3.67097 69.0576 2.96137 67.4634 2.96137H64.204V7.21893L67.5249 7.23785Z" fill="#5FACFA"/>
<path d="M79.763 3.02287H75.2311V1.66893e-06H87.578V3.02287H83.0413V14.9015H79.763V3.02287Z" fill="#5FACFA"/>
<path d="M88.7891 7.74876V7.70618C88.7891 3.47228 92.1336 0 96.7318 0C101.33 0 104.627 3.4297 104.627 7.66361V7.70618C104.627 11.9637 101.287 15.4124 96.6892 15.4124C92.091 15.4124 88.7891 11.9827 88.7891 7.74876ZM101.202 7.74876V7.70618C101.223 7.09985 101.122 6.4955 100.905 5.92903C100.687 5.36256 100.359 4.84553 99.9376 4.40866C99.5167 3.97179 99.0122 3.624 98.4541 3.38594C97.8961 3.14788 97.2959 3.02441 96.6892 3.02287C94.0495 3.02287 92.2188 5.10907 92.2188 7.66361V7.70618C92.1978 8.31252 92.299 8.91687 92.5162 9.48334C92.7335 10.0498 93.0623 10.5668 93.4833 11.0037C93.9043 11.4406 94.4088 11.7884 94.9668 12.0264C95.5249 12.2645 96.1251 12.388 96.7318 12.3895C99.3715 12.3895 101.197 10.308 101.197 7.74876H101.202Z" fill="#5FACFA"/>
<path d="M113.27 7.75008V7.7075C113.263 6.68592 113.46 5.67325 113.851 4.72918C114.241 3.78511 114.817 2.92874 115.543 2.21056C116.27 1.49237 117.133 0.926904 118.081 0.547479C119.03 0.168054 120.045 -0.0176475 121.066 0.00131935C123.748 0.00131935 125.366 0.725105 126.918 2.04495L124.855 4.53799C123.807 3.53825 122.406 2.99402 120.957 3.02419C118.592 3.02419 116.7 5.13405 116.7 7.66493V7.7075C116.7 10.4323 118.592 12.4381 121.213 12.4381C122.309 12.4727 123.389 12.1598 124.297 11.544V9.41053H120.986V6.57215H127.457V13.0484C125.691 14.5809 123.428 15.4212 121.09 15.4137C116.463 15.4137 113.27 12.1543 113.27 7.75008Z" fill="#5FACFA"/>
<path d="M130.622 1.66893e-06H137.434C139.326 1.66893e-06 140.798 0.534562 141.777 1.5138C142.206 1.96765 142.54 2.5028 142.76 3.08775C142.979 3.6727 143.079 4.29562 143.054 4.91985V4.96242C143.102 5.97563 142.815 6.97637 142.238 7.81061C141.661 8.64485 140.826 9.26637 139.861 9.57951L143.499 14.9015H139.667L136.474 10.133H133.9V14.9015H130.622V1.66893e-06ZM137.221 7.23785C138.815 7.23785 139.733 6.38634 139.733 5.13273V5.09015C139.733 3.67097 138.754 2.96137 137.155 2.96137H133.9V7.21893L137.221 7.23785Z" fill="#5FACFA"/>
<path d="M145.353 7.74876V7.70618C145.353 3.47228 148.693 0 153.291 0C157.889 0 161.187 3.4297 161.187 7.66361V7.70618C161.187 11.9637 157.847 15.4124 153.249 15.4124C148.65 15.4124 145.353 11.9827 145.353 7.74876ZM157.762 7.74876V7.70618C157.783 7.09866 157.681 6.49313 157.463 5.92572C157.245 5.35831 156.915 4.84063 156.492 4.40356C156.07 3.9665 155.563 3.619 155.004 3.38179C154.444 3.14457 153.842 3.02251 153.234 3.02287C150.595 3.02287 148.764 5.10907 148.764 7.66361V7.70618C148.743 8.31252 148.844 8.91687 149.061 9.48334C149.279 10.0498 149.607 10.5668 150.028 11.0037C150.449 11.4406 150.954 11.7884 151.512 12.0264C152.07 12.2645 152.67 12.388 153.277 12.3895C155.931 12.3895 157.762 10.308 157.762 7.74876Z" fill="#5FACFA"/>
<path d="M164.115 1.66893e-06H167.138L174.12 9.17741V1.66893e-06H177.361V14.9015H174.574L167.355 5.44022V14.9015H164.115V1.66893e-06Z" fill="#5FACFA"/>
<path d="M180.923 1.66893e-06H186.737C191.415 1.66893e-06 194.651 3.21683 194.651 7.40816V7.45073C194.651 11.6421 191.415 14.9015 186.737 14.9015H180.923V1.66893e-06ZM186.737 11.9448C189.419 11.9448 191.226 10.1377 191.226 7.49804V7.45073C191.26 6.852 191.168 6.25277 190.954 5.69232C190.741 5.13187 190.411 4.62282 189.987 4.19854C189.564 3.77425 189.055 3.44429 188.495 3.23027C187.934 3.01626 187.335 2.92301 186.737 2.95664H184.201V11.9448H186.737Z" fill="#5FACFA"/>
<path d="M196.912 7.74876V7.70618C196.912 3.47228 200.252 0 204.85 0C209.448 0 212.746 3.4297 212.746 7.66361V7.70618C212.746 11.9637 209.406 15.4124 204.808 15.4124C200.209 15.4124 196.912 11.9827 196.912 7.74876ZM209.321 7.74876V7.70618C209.342 7.09906 209.24 6.49392 209.022 5.92682C208.804 5.35972 208.475 4.84227 208.053 4.40527C207.631 3.96827 207.125 3.62067 206.566 3.38317C206.007 3.14568 205.406 3.02314 204.798 3.02287C202.158 3.02287 200.328 5.10907 200.328 7.66361V7.70618C200.307 8.31252 200.408 8.91687 200.625 9.48334C200.842 10.0498 201.171 10.5668 201.592 11.0037C202.013 11.4406 202.518 11.7884 203.076 12.0264C203.634 12.2645 204.234 12.388 204.841 12.3895C207.49 12.3895 209.321 10.308 209.321 7.74876Z" fill="#5FACFA"/>
<path d="M215.679 1.66893e-06H218.701L225.684 9.17741V1.66893e-06H228.924V14.9015H226.133L218.919 5.44022V14.9015H215.679V1.66893e-06Z" fill="#5FACFA"/>
<path d="M237.591 0H240.614L247 15.0055H243.589L242.227 11.661H235.907L234.544 15.0055H231.204L237.591 0ZM241.039 8.76584L239.057 3.93588L237.08 8.76584H241.039Z" fill="#5FACFA"/>
</svg>
