<svg width="322" height="39" viewBox="0 0 322 39" fill="none" xmlns="http://www.w3.org/2000/svg">
<path d="M11.7695 17.7148H4.46484L4.42578 13.457H10.4609C11.5286 13.457 12.3945 13.3268 13.0586 13.0664C13.7357 12.806 14.2305 12.4284 14.543 11.9336C14.8555 11.4258 15.0117 10.8008 15.0117 10.0586C15.0117 9.21224 14.8555 8.52865 14.543 8.00781C14.2305 7.48698 13.7357 7.10938 13.0586 6.875C12.3945 6.6276 11.5352 6.50391 10.4805 6.50391H6.76953V30H0.402344V1.5625H10.4805C12.1862 1.5625 13.7096 1.71875 15.0508 2.03125C16.3919 2.34375 17.5312 2.82552 18.4688 3.47656C19.4193 4.1276 20.1419 4.94141 20.6367 5.91797C21.1315 6.89453 21.3789 8.04688 21.3789 9.375C21.3789 10.5339 21.1185 11.6146 20.5977 12.6172C20.0898 13.6198 19.2695 14.4336 18.1367 15.0586C17.0039 15.6836 15.487 16.0221 13.5859 16.0742L11.7695 17.7148ZM11.5156 30H2.84375L5.14844 25.0781H11.5156C12.4922 25.0781 13.2865 24.9219 13.8984 24.6094C14.5104 24.2969 14.9596 23.8737 15.2461 23.3398C15.5326 22.806 15.6758 22.207 15.6758 21.543C15.6758 20.7617 15.5391 20.0846 15.2656 19.5117C15.0052 18.9388 14.5885 18.4961 14.0156 18.1836C13.4557 17.8711 12.707 17.7148 11.7695 17.7148H6.06641L6.10547 13.457H13.0781L14.5625 15.1367C16.3724 15.0977 17.8177 15.3906 18.8984 16.0156C19.9922 16.6276 20.7799 17.4349 21.2617 18.4375C21.7435 19.4401 21.9844 20.5013 21.9844 21.6211C21.9844 23.4701 21.5872 25.0195 20.793 26.2695C19.9987 27.5065 18.8203 28.4375 17.2578 29.0625C15.7083 29.6875 13.7943 30 11.5156 30ZM35.7539 30.3906C34.0742 30.3906 32.5703 30.1237 31.2422 29.5898C29.9141 29.056 28.7878 28.3203 27.8633 27.3828C26.9518 26.4323 26.2552 25.3385 25.7734 24.1016C25.2917 22.8646 25.0508 21.543 25.0508 20.1367V19.3945C25.0508 17.819 25.2721 16.3672 25.7148 15.0391C26.1576 13.7109 26.8021 12.5586 27.6484 11.582C28.5078 10.5924 29.5625 9.83073 30.8125 9.29688C32.0625 8.75 33.4883 8.47656 35.0898 8.47656C36.5872 8.47656 37.9219 8.72396 39.0938 9.21875C40.2656 9.70052 41.2552 10.3971 42.0625 11.3086C42.8698 12.207 43.4818 13.2943 43.8984 14.5703C44.3281 15.8333 44.543 17.2526 44.543 18.8281V21.3281H27.5117V17.4023H38.5664V16.9336C38.5664 16.1914 38.4297 15.5404 38.1562 14.9805C37.8958 14.4206 37.5052 13.9909 36.9844 13.6914C36.4766 13.3789 35.832 13.2227 35.0508 13.2227C34.3086 13.2227 33.6901 13.3789 33.1953 13.6914C32.7005 14.0039 32.3034 14.4466 32.0039 15.0195C31.7174 15.5794 31.5091 16.237 31.3789 16.9922C31.2487 17.7344 31.1836 18.5352 31.1836 19.3945V20.1367C31.1836 20.957 31.2943 21.7057 31.5156 22.3828C31.737 23.0599 32.0625 23.6393 32.4922 24.1211C32.9219 24.6029 33.4427 24.9805 34.0547 25.2539C34.6667 25.5273 35.3633 25.6641 36.1445 25.6641C37.1081 25.6641 38.026 25.4818 38.8984 25.1172C39.7708 24.7396 40.526 24.1536 41.1641 23.3594L44.0156 26.6211C43.5859 27.2461 42.9805 27.8516 42.1992 28.4375C41.431 29.0104 40.5065 29.4792 39.4258 29.8438C38.3451 30.2083 37.1211 30.3906 35.7539 30.3906ZM58.2539 8.86719V13.1445H45.7148V8.86719H58.2539ZM48.5859 3.63281H54.6992V23.3789C54.6992 23.9648 54.7708 24.4141 54.9141 24.7266C55.0573 25.0391 55.2917 25.2604 55.6172 25.3906C55.9427 25.5078 56.3594 25.5664 56.8672 25.5664C57.2318 25.5664 57.5443 25.5534 57.8047 25.5273C58.0651 25.5013 58.306 25.4688 58.5273 25.4297V29.8438C58.0065 30.013 57.4531 30.1432 56.8672 30.2344C56.2812 30.3385 55.6432 30.3906 54.9531 30.3906C53.638 30.3906 52.4987 30.1758 51.5352 29.7461C50.5846 29.3164 49.8555 28.6393 49.3477 27.7148C48.8398 26.7773 48.5859 25.5599 48.5859 24.0625V3.63281ZM59.7578 19.6484V19.2383C59.7578 17.6888 59.9792 16.263 60.4219 14.9609C60.8646 13.6458 61.5156 12.5065 62.375 11.543C63.2344 10.5794 64.2891 9.83073 65.5391 9.29688C66.7891 8.75 68.2214 8.47656 69.8359 8.47656C71.4766 8.47656 72.9219 8.75 74.1719 9.29688C75.4349 9.83073 76.4961 10.5794 77.3555 11.543C78.2148 12.5065 78.8659 13.6458 79.3086 14.9609C79.7513 16.263 79.9727 17.6888 79.9727 19.2383V19.6484C79.9727 21.1849 79.7513 22.6107 79.3086 23.9258C78.8659 25.2279 78.2148 26.3672 77.3555 27.3438C76.4961 28.3073 75.4414 29.056 74.1914 29.5898C72.9414 30.1237 71.5026 30.3906 69.875 30.3906C68.2604 30.3906 66.8216 30.1237 65.5586 29.5898C64.2956 29.056 63.2344 28.3073 62.375 27.3438C61.5156 26.3672 60.8646 25.2279 60.4219 23.9258C59.9792 22.6107 59.7578 21.1849 59.7578 19.6484ZM65.8711 19.2383V19.6484C65.8711 20.4818 65.9362 21.263 66.0664 21.9922C66.2096 22.7214 66.4375 23.3594 66.75 23.9062C67.0625 24.4531 67.4727 24.8828 67.9805 25.1953C68.5013 25.4948 69.1328 25.6445 69.875 25.6445C70.6172 25.6445 71.2422 25.4948 71.75 25.1953C72.2578 24.8828 72.668 24.4531 72.9805 23.9062C73.293 23.3594 73.5143 22.7214 73.6445 21.9922C73.7878 21.263 73.8594 20.4818 73.8594 19.6484V19.2383C73.8594 18.418 73.7878 17.6497 73.6445 16.9336C73.5143 16.2044 73.293 15.5599 72.9805 15C72.668 14.4401 72.2513 14.0039 71.7305 13.6914C71.2227 13.3789 70.5911 13.2227 69.8359 13.2227C69.1068 13.2227 68.4883 13.3789 67.9805 13.6914C67.4727 14.0039 67.0625 14.4401 66.75 15C66.4375 15.5599 66.2096 16.2044 66.0664 16.9336C65.9362 17.6497 65.8711 18.418 65.8711 19.2383ZM94.4258 24.1211C94.4258 23.7305 94.3021 23.3854 94.0547 23.0859C93.8203 22.7865 93.3906 22.513 92.7656 22.2656C92.1536 22.0182 91.2878 21.7708 90.168 21.5234C89.1133 21.3021 88.1302 21.0156 87.2188 20.6641C86.3073 20.2995 85.513 19.8633 84.8359 19.3555C84.1589 18.8346 83.6315 18.2227 83.2539 17.5195C82.8763 16.8034 82.6875 15.9896 82.6875 15.0781C82.6875 14.1927 82.8763 13.3529 83.2539 12.5586C83.6445 11.7643 84.2044 11.0612 84.9336 10.4492C85.6758 9.83724 86.5742 9.35547 87.6289 9.00391C88.6966 8.65234 89.9076 8.47656 91.2617 8.47656C93.1237 8.47656 94.7318 8.76953 96.0859 9.35547C97.4401 9.92839 98.4818 10.7357 99.2109 11.7773C99.9401 12.806 100.305 13.9844 100.305 15.3125H94.2109C94.2109 14.7656 94.1068 14.2904 93.8984 13.8867C93.6901 13.4831 93.3711 13.1706 92.9414 12.9492C92.5117 12.7148 91.9453 12.5977 91.2422 12.5977C90.6953 12.5977 90.2135 12.6953 89.7969 12.8906C89.3932 13.0729 89.0742 13.3268 88.8398 13.6523C88.6185 13.9779 88.5078 14.3555 88.5078 14.7852C88.5078 15.0846 88.5729 15.3581 88.7031 15.6055C88.8464 15.8398 89.0612 16.0612 89.3477 16.2695C89.6471 16.4648 90.0312 16.6406 90.5 16.7969C90.9818 16.9531 91.5677 17.1029 92.2578 17.2461C93.7292 17.5195 95.0703 17.9036 96.2812 18.3984C97.5052 18.8932 98.4818 19.5768 99.2109 20.4492C99.9531 21.3216 100.324 22.474 100.324 23.9062C100.324 24.8438 100.109 25.7031 99.6797 26.4844C99.263 27.2656 98.6576 27.9492 97.8633 28.5352C97.069 29.1211 96.1185 29.5768 95.0117 29.9023C93.9049 30.2279 92.6549 30.3906 91.2617 30.3906C89.2695 30.3906 87.5833 30.0326 86.2031 29.3164C84.8229 28.6003 83.7812 27.7018 83.0781 26.6211C82.388 25.5273 82.043 24.4076 82.043 23.2617H87.7656C87.7917 23.9648 87.9674 24.5378 88.293 24.9805C88.6315 25.4232 89.0677 25.7487 89.6016 25.957C90.1354 26.1523 90.7344 26.25 91.3984 26.25C92.0625 26.25 92.6159 26.1589 93.0586 25.9766C93.5013 25.7943 93.8398 25.5469 94.0742 25.2344C94.3086 24.9089 94.4258 24.5378 94.4258 24.1211ZM114.914 24.9609V15.8984C114.914 15.2604 114.816 14.7135 114.621 14.2578C114.426 13.8021 114.12 13.444 113.703 13.1836C113.286 12.9232 112.746 12.793 112.082 12.793C111.522 12.793 111.034 12.8906 110.617 13.0859C110.214 13.2812 109.901 13.5612 109.68 13.9258C109.471 14.2904 109.367 14.7396 109.367 15.2734H103.273C103.273 14.3229 103.488 13.4375 103.918 12.6172C104.348 11.7969 104.96 11.0742 105.754 10.4492C106.561 9.82422 107.525 9.34245 108.645 9.00391C109.764 8.65234 111.021 8.47656 112.414 8.47656C114.068 8.47656 115.539 8.75651 116.828 9.31641C118.13 9.86328 119.159 10.6901 119.914 11.7969C120.669 12.8906 121.047 14.2708 121.047 15.9375V24.7852C121.047 26.0612 121.118 27.0638 121.262 27.793C121.418 28.5091 121.639 29.1341 121.926 29.668V30H115.773C115.487 29.388 115.272 28.6328 115.129 27.7344C114.986 26.8229 114.914 25.8984 114.914 24.9609ZM115.676 17.1094L115.715 20.4688H112.688C112.01 20.4688 111.424 20.5534 110.93 20.7227C110.448 20.8919 110.057 21.1263 109.758 21.4258C109.458 21.7122 109.237 22.0508 109.094 22.4414C108.964 22.819 108.898 23.2357 108.898 23.6914C108.898 24.1211 109.003 24.5117 109.211 24.8633C109.419 25.2018 109.706 25.4688 110.07 25.6641C110.435 25.8594 110.858 25.957 111.34 25.957C112.134 25.957 112.811 25.8008 113.371 25.4883C113.944 25.1758 114.387 24.7982 114.699 24.3555C115.012 23.8997 115.168 23.4766 115.168 23.0859L116.633 25.625C116.398 26.1458 116.112 26.6862 115.773 27.2461C115.435 27.793 115.005 28.3073 114.484 28.7891C113.964 29.2578 113.332 29.6419 112.59 29.9414C111.861 30.2409 110.982 30.3906 109.953 30.3906C108.625 30.3906 107.421 30.1237 106.34 29.5898C105.259 29.043 104.393 28.2943 103.742 27.3438C103.104 26.3932 102.785 25.2995 102.785 24.0625C102.785 22.9557 102.987 21.9727 103.391 21.1133C103.794 20.2539 104.4 19.5247 105.207 18.9258C106.027 18.3268 107.056 17.8776 108.293 17.5781C109.53 17.2656 110.975 17.1094 112.629 17.1094H115.676ZM131.164 12.9297V38.125H125.07V8.86719H130.754L131.164 12.9297ZM144.348 19.1992V19.6094C144.348 21.1458 144.172 22.5716 143.82 23.8867C143.469 25.1888 142.941 26.3281 142.238 27.3047C141.548 28.2812 140.695 29.043 139.68 29.5898C138.664 30.1237 137.486 30.3906 136.145 30.3906C134.868 30.3906 133.762 30.1237 132.824 29.5898C131.9 29.043 131.118 28.2878 130.48 27.3242C129.855 26.3477 129.348 25.2344 128.957 23.9844C128.579 22.7214 128.286 21.3737 128.078 19.9414V19.1406C128.286 17.6172 128.586 16.2044 128.977 14.9023C129.367 13.6003 129.875 12.474 130.5 11.5234C131.125 10.5599 131.9 9.8112 132.824 9.27734C133.749 8.74349 134.849 8.47656 136.125 8.47656C137.453 8.47656 138.632 8.73047 139.66 9.23828C140.689 9.74609 141.548 10.4753 142.238 11.4258C142.941 12.3633 143.469 13.4896 143.82 14.8047C144.172 16.1198 144.348 17.5846 144.348 19.1992ZM138.234 19.6094V19.1992C138.234 18.3398 138.169 17.5521 138.039 16.8359C137.909 16.1068 137.701 15.4753 137.414 14.9414C137.128 14.3945 136.75 13.9714 136.281 13.6719C135.812 13.3724 135.24 13.2227 134.562 13.2227C133.833 13.2227 133.215 13.3398 132.707 13.5742C132.199 13.8086 131.789 14.1536 131.477 14.6094C131.164 15.0521 130.936 15.599 130.793 16.25C130.663 16.901 130.591 17.6432 130.578 18.4766V20.625C130.591 21.6016 130.728 22.474 130.988 23.2422C131.262 23.9974 131.685 24.5898 132.258 25.0195C132.844 25.4362 133.625 25.6445 134.602 25.6445C135.292 25.6445 135.865 25.4948 136.32 25.1953C136.789 24.8828 137.16 24.4466 137.434 23.8867C137.72 23.3268 137.922 22.6823 138.039 21.9531C138.169 21.224 138.234 20.4427 138.234 19.6094ZM154.016 8.86719V30H147.902V8.86719H154.016ZM147.531 3.39844C147.531 2.51302 147.844 1.79036 148.469 1.23047C149.094 0.657552 149.914 0.371094 150.93 0.371094C151.945 0.371094 152.766 0.657552 153.391 1.23047C154.029 1.79036 154.348 2.51302 154.348 3.39844C154.348 4.27083 154.029 4.99349 153.391 5.56641C152.766 6.1263 151.945 6.40625 150.93 6.40625C149.914 6.40625 149.094 6.1263 148.469 5.56641C147.844 4.99349 147.531 4.27083 147.531 3.39844ZM168.371 30.3906C166.691 30.3906 165.188 30.1237 163.859 29.5898C162.531 29.056 161.405 28.3203 160.48 27.3828C159.569 26.4323 158.872 25.3385 158.391 24.1016C157.909 22.8646 157.668 21.543 157.668 20.1367V19.3945C157.668 17.819 157.889 16.3672 158.332 15.0391C158.775 13.7109 159.419 12.5586 160.266 11.582C161.125 10.5924 162.18 9.83073 163.43 9.29688C164.68 8.75 166.105 8.47656 167.707 8.47656C169.204 8.47656 170.539 8.72396 171.711 9.21875C172.883 9.70052 173.872 10.3971 174.68 11.3086C175.487 12.207 176.099 13.2943 176.516 14.5703C176.945 15.8333 177.16 17.2526 177.16 18.8281V21.3281H160.129V17.4023H171.184V16.9336C171.184 16.1914 171.047 15.5404 170.773 14.9805C170.513 14.4206 170.122 13.9909 169.602 13.6914C169.094 13.3789 168.449 13.2227 167.668 13.2227C166.926 13.2227 166.307 13.3789 165.812 13.6914C165.318 14.0039 164.921 14.4466 164.621 15.0195C164.335 15.5794 164.126 16.237 163.996 16.9922C163.866 17.7344 163.801 18.5352 163.801 19.3945V20.1367C163.801 20.957 163.911 21.7057 164.133 22.3828C164.354 23.0599 164.68 23.6393 165.109 24.1211C165.539 24.6029 166.06 24.9805 166.672 25.2539C167.284 25.5273 167.98 25.6641 168.762 25.6641C169.725 25.6641 170.643 25.4818 171.516 25.1172C172.388 24.7396 173.143 24.1536 173.781 23.3594L176.633 26.6211C176.203 27.2461 175.598 27.8516 174.816 28.4375C174.048 29.0104 173.124 29.4792 172.043 29.8438C170.962 30.2083 169.738 30.3906 168.371 30.3906ZM186.105 13.3789V30H179.992V8.86719H185.734L186.105 13.3789ZM185.305 18.6914L183.781 18.7305C183.781 17.1419 183.977 15.7161 184.367 14.4531C184.758 13.1901 185.311 12.1159 186.027 11.2305C186.757 10.332 187.622 9.64844 188.625 9.17969C189.641 8.71094 190.76 8.47656 191.984 8.47656C192.974 8.47656 193.879 8.61979 194.699 8.90625C195.52 9.19271 196.223 9.65495 196.809 10.293C197.408 10.918 197.863 11.7513 198.176 12.793C198.488 13.8216 198.645 15.0911 198.645 16.6016V30H192.512V16.582C192.512 15.6966 192.388 15.013 192.141 14.5312C191.893 14.0495 191.529 13.7109 191.047 13.5156C190.578 13.3203 190.005 13.2227 189.328 13.2227C188.612 13.2227 188 13.3659 187.492 13.6523C186.984 13.9258 186.568 14.3099 186.242 14.8047C185.917 15.2995 185.676 15.8789 185.52 16.543C185.376 17.207 185.305 17.9232 185.305 18.6914ZM213.879 24.1211C213.879 23.7305 213.755 23.3854 213.508 23.0859C213.273 22.7865 212.844 22.513 212.219 22.2656C211.607 22.0182 210.741 21.7708 209.621 21.5234C208.566 21.3021 207.583 21.0156 206.672 20.6641C205.76 20.2995 204.966 19.8633 204.289 19.3555C203.612 18.8346 203.085 18.2227 202.707 17.5195C202.329 16.8034 202.141 15.9896 202.141 15.0781C202.141 14.1927 202.329 13.3529 202.707 12.5586C203.098 11.7643 203.658 11.0612 204.387 10.4492C205.129 9.83724 206.027 9.35547 207.082 9.00391C208.15 8.65234 209.361 8.47656 210.715 8.47656C212.577 8.47656 214.185 8.76953 215.539 9.35547C216.893 9.92839 217.935 10.7357 218.664 11.7773C219.393 12.806 219.758 13.9844 219.758 15.3125H213.664C213.664 14.7656 213.56 14.2904 213.352 13.8867C213.143 13.4831 212.824 13.1706 212.395 12.9492C211.965 12.7148 211.398 12.5977 210.695 12.5977C210.148 12.5977 209.667 12.6953 209.25 12.8906C208.846 13.0729 208.527 13.3268 208.293 13.6523C208.072 13.9779 207.961 14.3555 207.961 14.7852C207.961 15.0846 208.026 15.3581 208.156 15.6055C208.299 15.8398 208.514 16.0612 208.801 16.2695C209.1 16.4648 209.484 16.6406 209.953 16.7969C210.435 16.9531 211.021 17.1029 211.711 17.2461C213.182 17.5195 214.523 17.9036 215.734 18.3984C216.958 18.8932 217.935 19.5768 218.664 20.4492C219.406 21.3216 219.777 22.474 219.777 23.9062C219.777 24.8438 219.562 25.7031 219.133 26.4844C218.716 27.2656 218.111 27.9492 217.316 28.5352C216.522 29.1211 215.572 29.5768 214.465 29.9023C213.358 30.2279 212.108 30.3906 210.715 30.3906C208.723 30.3906 207.036 30.0326 205.656 29.3164C204.276 28.6003 203.234 27.7018 202.531 26.6211C201.841 25.5273 201.496 24.4076 201.496 23.2617H207.219C207.245 23.9648 207.421 24.5378 207.746 24.9805C208.085 25.4232 208.521 25.7487 209.055 25.957C209.589 26.1523 210.188 26.25 210.852 26.25C211.516 26.25 212.069 26.1589 212.512 25.9766C212.954 25.7943 213.293 25.5469 213.527 25.2344C213.762 24.9089 213.879 24.5378 213.879 24.1211Z" fill="#E7F3FE" fill-opacity="0.2"/>
<path d="M236.73 1.5625V30H230.383V1.5625H236.73ZM245.383 1.5625V6.50391H221.906V1.5625H245.383ZM243.586 19.6484V19.2383C243.586 17.6888 243.807 16.263 244.25 14.9609C244.693 13.6458 245.344 12.5065 246.203 11.543C247.062 10.5794 248.117 9.83073 249.367 9.29688C250.617 8.75 252.049 8.47656 253.664 8.47656C255.305 8.47656 256.75 8.75 258 9.29688C259.263 9.83073 260.324 10.5794 261.184 11.543C262.043 12.5065 262.694 13.6458 263.137 14.9609C263.579 16.263 263.801 17.6888 263.801 19.2383V19.6484C263.801 21.1849 263.579 22.6107 263.137 23.9258C262.694 25.2279 262.043 26.3672 261.184 27.3438C260.324 28.3073 259.27 29.056 258.02 29.5898C256.77 30.1237 255.331 30.3906 253.703 30.3906C252.089 30.3906 250.65 30.1237 249.387 29.5898C248.124 29.056 247.062 28.3073 246.203 27.3438C245.344 26.3672 244.693 25.2279 244.25 23.9258C243.807 22.6107 243.586 21.1849 243.586 19.6484ZM249.699 19.2383V19.6484C249.699 20.4818 249.764 21.263 249.895 21.9922C250.038 22.7214 250.266 23.3594 250.578 23.9062C250.891 24.4531 251.301 24.8828 251.809 25.1953C252.329 25.4948 252.961 25.6445 253.703 25.6445C254.445 25.6445 255.07 25.4948 255.578 25.1953C256.086 24.8828 256.496 24.4531 256.809 23.9062C257.121 23.3594 257.342 22.7214 257.473 21.9922C257.616 21.263 257.688 20.4818 257.688 19.6484V19.2383C257.688 18.418 257.616 17.6497 257.473 16.9336C257.342 16.2044 257.121 15.5599 256.809 15C256.496 14.4401 256.079 14.0039 255.559 13.6914C255.051 13.3789 254.419 13.2227 253.664 13.2227C252.935 13.2227 252.316 13.3789 251.809 13.6914C251.301 14.0039 250.891 14.4401 250.578 15C250.266 15.5599 250.038 16.2044 249.895 16.9336C249.764 17.6497 249.699 18.418 249.699 19.2383ZM279.406 24.9023V8.86719H285.539V30H279.797L279.406 24.9023ZM280.051 20.5859L281.73 20.5469C281.73 21.9661 281.561 23.2747 281.223 24.4727C280.897 25.6706 280.402 26.7122 279.738 27.5977C279.087 28.4831 278.273 29.1732 277.297 29.668C276.333 30.1497 275.207 30.3906 273.918 30.3906C272.876 30.3906 271.919 30.2474 271.047 29.9609C270.188 29.6615 269.445 29.1992 268.82 28.5742C268.195 27.9362 267.714 27.1224 267.375 26.1328C267.036 25.1302 266.867 23.9323 266.867 22.5391V8.86719H272.961V22.5781C272.961 23.125 273.026 23.5938 273.156 23.9844C273.299 24.362 273.488 24.6745 273.723 24.9219C273.97 25.1693 274.27 25.3516 274.621 25.4688C274.986 25.5859 275.383 25.6445 275.812 25.6445C276.893 25.6445 277.74 25.4232 278.352 24.9805C278.977 24.5247 279.413 23.9193 279.66 23.1641C279.921 22.3958 280.051 21.5365 280.051 20.5859ZM295.617 13.7891V30H289.523V8.86719H295.246L295.617 13.7891ZM301.926 8.71094L301.828 14.3945C301.568 14.3555 301.229 14.3229 300.812 14.2969C300.396 14.2578 300.038 14.2383 299.738 14.2383C298.957 14.2383 298.28 14.3359 297.707 14.5312C297.147 14.7135 296.678 14.987 296.301 15.3516C295.936 15.7161 295.663 16.1719 295.48 16.7188C295.298 17.2526 295.207 17.8711 295.207 18.5742L294.055 18.0078C294.055 16.6146 294.191 15.3385 294.465 14.1797C294.738 13.0208 295.135 12.0182 295.656 11.1719C296.177 10.3125 296.815 9.64844 297.57 9.17969C298.326 8.71094 299.185 8.47656 300.148 8.47656C300.461 8.47656 300.78 8.49609 301.105 8.53516C301.431 8.57422 301.704 8.63281 301.926 8.71094ZM315.676 24.1211C315.676 23.7305 315.552 23.3854 315.305 23.0859C315.07 22.7865 314.641 22.513 314.016 22.2656C313.404 22.0182 312.538 21.7708 311.418 21.5234C310.363 21.3021 309.38 21.0156 308.469 20.6641C307.557 20.2995 306.763 19.8633 306.086 19.3555C305.409 18.8346 304.882 18.2227 304.504 17.5195C304.126 16.8034 303.938 15.9896 303.938 15.0781C303.938 14.1927 304.126 13.3529 304.504 12.5586C304.895 11.7643 305.454 11.0612 306.184 10.4492C306.926 9.83724 307.824 9.35547 308.879 9.00391C309.947 8.65234 311.158 8.47656 312.512 8.47656C314.374 8.47656 315.982 8.76953 317.336 9.35547C318.69 9.92839 319.732 10.7357 320.461 11.7773C321.19 12.806 321.555 13.9844 321.555 15.3125H315.461C315.461 14.7656 315.357 14.2904 315.148 13.8867C314.94 13.4831 314.621 13.1706 314.191 12.9492C313.762 12.7148 313.195 12.5977 312.492 12.5977C311.945 12.5977 311.464 12.6953 311.047 12.8906C310.643 13.0729 310.324 13.3268 310.09 13.6523C309.868 13.9779 309.758 14.3555 309.758 14.7852C309.758 15.0846 309.823 15.3581 309.953 15.6055C310.096 15.8398 310.311 16.0612 310.598 16.2695C310.897 16.4648 311.281 16.6406 311.75 16.7969C312.232 16.9531 312.818 17.1029 313.508 17.2461C314.979 17.5195 316.32 17.9036 317.531 18.3984C318.755 18.8932 319.732 19.5768 320.461 20.4492C321.203 21.3216 321.574 22.474 321.574 23.9062C321.574 24.8438 321.359 25.7031 320.93 26.4844C320.513 27.2656 319.908 27.9492 319.113 28.5352C318.319 29.1211 317.368 29.5768 316.262 29.9023C315.155 30.2279 313.905 30.3906 312.512 30.3906C310.52 30.3906 308.833 30.0326 307.453 29.3164C306.073 28.6003 305.031 27.7018 304.328 26.6211C303.638 25.5273 303.293 24.4076 303.293 23.2617H309.016C309.042 23.9648 309.217 24.5378 309.543 24.9805C309.882 25.4232 310.318 25.7487 310.852 25.957C311.385 26.1523 311.984 26.25 312.648 26.25C313.312 26.25 313.866 26.1589 314.309 25.9766C314.751 25.7943 315.09 25.5469 315.324 25.2344C315.559 24.9089 315.676 24.5378 315.676 24.1211Z" fill="#37CFF1"/>
</svg>
